<svg width="14" height="14" viewBox="0 0 14 14" fill="none" xmlns="http://www.w3.org/2000/svg">
<path d="M7.00004 0.729086C10.4592 0.729086 13.2709 3.54075 13.2709 6.99992C13.2709 10.4591 10.4592 13.2708 7.00004 13.2708C3.54087 13.2708 0.729208 10.4591 0.729208 6.99992C0.729208 3.54075 3.54087 0.729086 7.00004 0.729086ZM7.00004 12.3958C9.97504 12.3958 12.3959 9.97492 12.3959 6.99992C12.3959 4.02492 9.97504 1.60409 7.00004 1.60409C4.02504 1.60409 1.60421 4.02492 1.60421 6.99992C1.60421 9.97492 4.02504 12.3958 7.00004 12.3958Z" fill="#72D7F0"/>
<path d="M5.54163 6.5625H9.04163C9.28079 6.5625 9.47913 6.76083 9.47913 7C9.47913 7.23917 9.28079 7.4375 9.04163 7.4375L5.54163 7.4375C5.30246 7.4375 5.10413 7.23917 5.10413 7C5.10413 6.76083 5.30246 6.5625 5.54163 6.5625Z" fill="#72D7F0"/>
<path d="M6.70837 4.81249C6.8192 4.81249 6.93003 4.85333 7.01753 4.94083C7.1867 5.10999 7.1867 5.38999 7.01753 5.55916L5.5767 6.99999L7.01753 8.44083C7.1867 8.60999 7.1867 8.88999 7.01753 9.05916C6.84837 9.22833 6.56837 9.22833 6.3992 9.05916L4.6492 7.30916C4.48003 7.13999 4.48003 6.85999 4.6492 6.69083L6.3992 4.94083C6.4867 4.85333 6.59753 4.81249 6.70837 4.81249Z" fill="#72D7F0"/>
</svg>
