<svg width="14" height="14" viewBox="0 0 14 14" fill="none" xmlns="http://www.w3.org/2000/svg">
<path d="M7.00004 0.729086C10.4592 0.729086 13.2709 3.54075 13.2709 6.99992C13.2709 10.4591 10.4592 13.2708 7.00004 13.2708C3.54087 13.2708 0.729208 10.4591 0.729208 6.99992C0.729208 3.54075 3.54087 0.729086 7.00004 0.729086ZM7.00004 12.3958C9.97504 12.3958 12.3959 9.97492 12.3959 6.99992C12.3959 4.02492 9.97504 1.60409 7.00004 1.60409C4.02504 1.60409 1.60421 4.02492 1.60421 6.99992C1.60421 9.97492 4.02504 12.3958 7.00004 12.3958Z" fill="#6E717D"/>
<path d="M4.95837 6.5625H8.45837C8.69754 6.5625 8.89587 6.76083 8.89587 7C8.89587 7.23917 8.69754 7.4375 8.45837 7.4375L4.95837 7.4375C4.71921 7.4375 4.52087 7.23917 4.52087 7C4.52087 6.76083 4.71921 6.5625 4.95837 6.5625Z" fill="#6E717D"/>
<path d="M7.29162 4.81249C7.40245 4.81249 7.51329 4.85333 7.60079 4.94083L9.35079 6.69083C9.51995 6.85999 9.51995 7.13999 9.35079 7.30916L7.60079 9.05916C7.43162 9.22833 7.15162 9.22833 6.98245 9.05916C6.81329 8.88999 6.81329 8.60999 6.98245 8.44083L8.42329 6.99999L6.98245 5.55916C6.81329 5.38999 6.81329 5.10999 6.98245 4.94083C7.06995 4.85333 7.18079 4.81249 7.29162 4.81249Z" fill="#6E717D"/>
</svg>
